<?xml version="1.0" standalone="no"?>
<!DOCTYPE svg PUBLIC "-//W3C//DTD SVG 20010904//EN"
 "http://www.w3.org/TR/2001/REC-SVG-20010904/DTD/svg10.dtd">
<svg version="1.0" xmlns="http://www.w3.org/2000/svg"
 width="1024.000000pt" height="1024.000000pt" viewBox="0 0 1024.000000 1024.000000"
 preserveAspectRatio="xMidYMid meet">
<metadata>
Created by potrace 1.14, written by Peter Selinger 2001-2017
</metadata>
<g transform="translate(0.000000,1024.000000) scale(0.100000,-0.100000)"
fill="#000000" stroke="none">
<path d="M7247 9253 c-220 -209 -434 -382 -717 -578 -162 -113 -496 -359 -615
-454 -66 -52 -183 -157 -260 -233 l-140 -138 233 0 234 0 29 -29 c39 -40 41
-97 3 -135 l-27 -26 -333 0 -333 0 -70 -77 c-38 -43 -93 -107 -122 -143 l-52
-65 279 -5 c153 -3 285 -9 293 -14 7 -5 20 -24 28 -43 11 -27 12 -42 3 -69
-22 -65 -18 -64 -392 -64 l-338 0 -31 -42 c-38 -54 -149 -280 -182 -373 -14
-38 -28 -78 -32 -87 -7 -17 5 -18 154 -18 183 0 220 -9 246 -60 20 -39 13 -72
-20 -106 l-24 -24 -698 0 -698 0 -50 24 c-64 30 -118 85 -153 155 -23 48 -27
68 -27 146 0 103 16 146 88 236 49 61 55 110 21 156 -32 43 -74 62 -158 73
-81 10 -119 25 -177 71 -20 16 -40 29 -43 29 -10 0 -151 -288 -215 -437 -98
-230 -204 -589 -177 -599 6 -2 337 -5 736 -6 l725 -3 63 -34 c159 -87 228
-263 172 -444 -34 -108 -112 -197 -206 -233 -50 -19 -162 -16 -188 5 -14 12
-11 17 28 42 60 40 124 111 148 166 25 58 34 145 19 200 -23 85 -100 158 -181
173 -51 9 -67 -1 -39 -26 35 -32 71 -114 77 -176 11 -127 -58 -247 -176 -305
l-57 -28 -594 -3 -594 -3 6 -192 c6 -194 32 -426 63 -569 l17 -78 466 0 c351
0 472 -3 491 -13 14 -7 33 -28 43 -48 14 -30 15 -41 6 -68 -21 -60 -29 -61
-524 -61 -245 0 -445 -2 -445 -4 0 -2 24 -75 54 -162 162 -477 364 -813 769
-1281 123 -144 147 -139 206 40 30 93 91 300 91 311 0 3 -38 6 -85 6 -142 0
-236 51 -294 160 -25 46 -31 70 -31 117 0 159 96 259 260 271 39 2 70 9 70 13
0 12 -73 64 -107 76 -15 6 -48 16 -73 23 -62 17 -110 67 -110 115 0 50 58 111
115 119 115 18 144 28 184 63 60 51 85 104 86 183 0 77 -21 126 -78 183 -60
60 -114 79 -244 87 -126 8 -177 29 -227 95 -115 151 -86 351 70 470 l36 27 26
-25 c71 -65 42 -62 540 -67 l454 -5 24 -28 c33 -39 33 -99 -1 -132 l-24 -25
-531 0 c-438 0 -530 -2 -530 -13 0 -21 51 -92 85 -119 29 -23 35 -23 310 -28
l280 -5 68 -32 c88 -42 165 -116 207 -199 28 -55 34 -79 38 -151 8 -155 -36
-272 -139 -368 -81 -74 -143 -96 -285 -103 l-112 -4 24 -52 c13 -28 24 -63 24
-78 l0 -28 196 0 c115 0 203 -4 215 -10 53 -29 61 -116 13 -161 l-26 -24 -330
-5 c-312 -5 -330 -6 -344 -24 -19 -27 -18 -37 9 -77 44 -66 59 -69 370 -69
l279 0 -6 -27 c-3 -16 -15 -80 -26 -143 -50 -281 -156 -617 -351 -1115 -45
-115 -84 -230 -86 -255 -4 -44 -2 -48 93 -165 191 -238 384 -561 473 -795 53
-138 91 -304 97 -415 3 -55 10 -119 16 -143 12 -46 60 -97 103 -108 38 -9 93
14 122 52 24 32 27 49 39 185 19 220 73 400 190 633 106 211 159 294 345 542
110 146 129 177 129 208 0 21 -21 85 -49 154 -157 372 -309 835 -367 1116 -94
460 -92 982 7 1479 120 608 347 1159 689 1672 172 257 325 446 636 784 185
201 307 342 450 521 115 143 130 158 145 143 14 -14 -20 -135 -78 -278 -94
-233 -200 -409 -506 -842 -500 -709 -754 -1231 -917 -1888 -143 -578 -146
-1180 -10 -1710 54 -209 79 -252 129 -226 43 23 329 412 437 593 93 156 342
664 331 674 -5 6 -313 -45 -491 -80 -216 -43 -316 -59 -322 -53 -19 19 113
145 224 214 137 86 359 167 571 209 51 10 95 23 96 29 2 5 22 78 44 160 86
321 234 742 345 979 25 55 44 102 40 105 -3 3 -94 7 -202 9 -177 3 -372 -6
-551 -24 -79 -9 -79 1 5 69 182 148 441 226 809 245 l128 7 79 130 c87 143
233 427 296 575 120 283 198 631 217 965 18 317 -49 801 -161 1162 -103 333
-126 350 -277 206z m-919 -1408 c44 -37 58 -77 43 -125 -33 -110 -204 -107
-225 4 -20 107 102 188 182 121z m-354 -480 c54 -50 58 -120 8 -168 -57 -54
-121 -56 -171 -6 -76 76 -21 199 88 199 37 0 54 -6 75 -25z m-2717 -455 c60
-36 83 -110 54 -175 -25 -56 -70 -85 -131 -85 -144 0 -192 184 -68 260 42 25
104 26 145 0z m2131 -256 c13 -9 30 -32 39 -52 52 -124 -119 -222 -197 -112
-56 78 14 200 104 185 17 -3 41 -12 54 -21z m-604 -445 c32 -38 33 -70 2 -105
-49 -58 -136 -25 -136 50 1 34 14 56 45 74 34 19 62 13 89 -19z m326 -24 c54
-28 86 -96 75 -159 -20 -105 -160 -145 -238 -68 -38 39 -49 120 -23 171 33 63
121 90 186 56z m-345 -201 c24 -10 46 -60 39 -89 -8 -32 -49 -65 -81 -65 -13
0 -35 11 -48 25 -63 62 6 161 90 129z m89 -548 c42 -18 66 -51 66 -94 0 -127
-161 -168 -215 -55 -16 33 -16 41 -4 77 15 42 66 86 101 86 10 0 34 -6 52 -14z
m-1686 -56 c93 -57 95 -197 3 -245 -40 -20 -106 -19 -142 2 -40 24 -73 94 -66
140 17 100 122 153 205 103z m1579 -420 c54 -33 82 -109 60 -163 -24 -55 -70
-87 -129 -87 -45 0 -54 4 -89 39 -34 34 -39 44 -39 85 0 85 55 146 130 146 19
0 49 -9 67 -20z m-1370 -596 c109 -71 63 -244 -64 -246 -107 -1 -168 94 -122
188 36 76 120 102 186 58z m1342 -299 c70 -36 79 -145 17 -202 -78 -72 -196
-16 -196 92 0 97 94 155 179 110z m-1260 -156 c33 -11 61 -52 61 -88 0 -29
-40 -70 -75 -77 -22 -4 -38 0 -57 15 -59 47 -40 130 38 161 1 0 15 -5 33 -11z
m1306 -528 c105 -49 144 -159 93 -261 -42 -83 -132 -117 -227 -85 -142 47
-169 230 -49 324 56 45 118 52 183 22z m41 -940 c138 -63 204 -212 153 -346
-28 -74 -105 -155 -165 -173 -194 -57 -373 67 -374 260 0 115 75 227 176 263
57 21 161 18 210 -4z"/>
<path d="M3556 7789 c-49 -12 -101 -50 -121 -89 -34 -65 -8 -150 57 -190 31
-19 51 -20 366 -20 365 0 376 2 425 59 48 58 48 125 0 182 -52 61 -67 63 -393
66 -163 1 -313 -3 -334 -8z"/>
<path d="M4462 7783 c37 -71 42 -93 42 -163 -1 -101 -31 -178 -94 -241 -87
-87 -166 -111 -355 -108 l-120 1 -3 -69 -3 -70 32 -7 c40 -8 196 -8 527 1
l263 6 34 75 c19 41 35 77 35 79 0 3 -17 3 -37 0 -144 -21 -137 -22 -171 13
-31 31 -37 50 -33 99 5 60 66 105 141 103 55 0 95 20 120 61 43 70 14 159 -65
204 -36 20 -54 23 -178 23 -76 0 -137 -3 -135 -7z"/>
<path d="M3863 6904 c-100 -50 -92 -185 14 -230 24 -10 85 -14 233 -14 148 0
209 4 233 14 78 33 108 113 65 176 -43 65 -67 70 -303 70 -172 0 -216 -3 -242
-16z"/>
<path d="M2721 6017 c-6 -62 -11 -125 -11 -140 l0 -27 576 0 c508 0 579 2 602
16 68 40 91 124 50 183 -12 19 -36 44 -51 55 -28 21 -38 21 -591 24 l-563 2
-12 -113z"/>
<path d="M4049 4864 c66 -75 86 -126 86 -219 0 -87 -18 -145 -61 -202 l-25
-33 26 0 c70 0 162 82 185 165 28 100 -14 226 -94 283 -46 32 -96 52 -133 52
-24 0 -23 -2 16 -46z"/>
<path d="M2215 2576 c-50 -22 -92 -64 -160 -158 -78 -109 -144 -242 -181 -363
-25 -80 -28 -106 -28 -240 -1 -115 3 -168 18 -225 39 -159 172 -387 293 -501
54 -51 55 -51 109 -47 60 5 93 28 114 79 20 47 4 88 -66 174 -194 237 -258
437 -206 643 32 127 90 228 233 410 40 52 49 70 49 104 0 54 -26 94 -75 118
-48 23 -59 24 -100 6z"/>
<path d="M7305 2571 c-48 -22 -75 -65 -75 -119 0 -33 8 -50 43 -92 150 -183
192 -249 233 -370 28 -83 26 -262 -3 -355 -28 -89 -100 -216 -170 -301 -86
-104 -103 -133 -103 -177 0 -32 7 -46 39 -78 32 -33 45 -39 80 -39 56 0 88 18
148 84 115 125 209 291 253 446 43 149 38 372 -12 524 -65 200 -250 459 -347
486 -45 12 -39 13 -86 -9z"/>
<path d="M6649 2495 c-15 -8 -32 -29 -38 -46 -7 -22 -11 -194 -11 -536 l0
-505 34 -34 c29 -29 41 -34 80 -34 36 0 52 6 78 29 l33 29 5 169 c5 155 7 170
28 201 29 40 51 52 97 52 27 0 44 -8 66 -29 l29 -29 0 -182 0 -182 29 -29 c34
-33 92 -39 140 -15 46 24 51 49 51 280 l0 213 -31 61 c-46 93 -117 135 -229
135 -60 0 -91 -9 -172 -51 -5 -2 -8 101 -8 228 l0 232 -29 29 c-25 24 -37 29
-78 29 -26 -1 -60 -7 -74 -15z"/>
<path d="M3310 2164 c-53 -34 -82 -106 -66 -168 3 -14 58 -79 121 -146 63 -66
115 -121 115 -123 0 -1 -45 -42 -100 -91 -108 -96 -140 -137 -140 -182 0 -53
57 -115 116 -128 63 -14 105 14 329 217 139 126 162 158 151 203 -8 32 -361
395 -408 420 -35 18 -87 17 -118 -2z"/>
<path d="M6054 2152 c-69 -24 -99 -45 -134 -94 -86 -118 -69 -263 40 -343 19
-14 71 -37 115 -50 107 -34 125 -44 125 -71 0 -60 -94 -69 -195 -20 -32 16
-63 25 -74 21 -32 -10 -91 -82 -91 -112 0 -40 63 -93 145 -123 93 -33 227 -35
295 -4 140 64 197 208 136 341 -32 68 -82 103 -202 143 -100 34 -123 54 -104
90 24 44 86 52 152 19 53 -27 75 -20 132 41 53 56 52 65 -8 118 -69 60 -225
81 -332 44z"/>
<path d="M2590 2031 c-86 -28 -168 -98 -209 -179 -12 -23 -26 -72 -33 -111
-10 -60 -9 -78 5 -131 30 -105 89 -180 181 -227 73 -38 198 -44 277 -14 71 27
134 82 179 157 34 56 35 62 35 159 0 89 -3 106 -28 157 -35 72 -98 137 -162
168 -38 19 -69 25 -135 27 -47 1 -96 -1 -110 -6z"/>
<path d="M5556 1609 c-62 -18 -100 -77 -98 -152 2 -85 112 -143 192 -102 137
71 53 297 -94 254z"/>
</g>
</svg>
